<?xml version="1.0" encoding="UTF-8"?>
<svg width="442px" height="302px" viewBox="0 0 442 302" version="1.1" xmlns="http://www.w3.org/2000/svg" xmlns:xlink="http://www.w3.org/1999/xlink">
    <title>地球</title>
    <defs>
        <linearGradient x1="100%" y1="50%" x2="-1.22296512e-14%" y2="50%" id="linearGradient-1">
            <stop stop-color="#2E3192" offset="2.075353e-05%"></stop>
            <stop stop-color="#0071BC" offset="100%"></stop>
        </linearGradient>
        <linearGradient x1="0.650760164%" y1="48.1046189%" x2="99.3637844%" y2="52.0555805%" id="linearGradient-2">
            <stop stop-color="#A580BF" offset="2.075353e-05%"></stop>
            <stop stop-color="#006AB2" offset="99.81%"></stop>
        </linearGradient>
    </defs>
    <g id="页面-1" stroke="none" stroke-width="1" fill="none" fill-rule="evenodd">
        <g id="地球" fill-rule="nonzero">
            <circle id="椭圆形" fill="url(#linearGradient-1)" cx="224.3" cy="116.7" r="116.2"></circle>
            <path d="M273.9,11.9 C267.9,12.3 261.1,13 256.3,17 C248.5,23.4 251.8,33.5 239.2,37.8 C226.1,42.3 208.1,33.4 201,49.9 C199.4,53.7 199.7,58 198.6,61.9 C196.1,71.6 190.6,78.6 181.9,83.6 C173.8,88.2 163.9,90.1 157.4,97.4 C152.9,102.4 153,106.4 152.2,112.6 C151,122.6 170.5,113.6 145.7,131.7 C137.2,137.9 123.3,137.8 113.7,136.3 C112.8,136.2 112.4,137.6 113.3,137.7 C125.3,139.5 144.9,138.9 153.1,127.9 C159.4,119.4 152.7,107.6 158.4,98.5 C164.2,89.2 180.2,87.8 188.5,81 C193.8,76.6 197.6,70.9 199.5,64.3 C202.3,54.5 199.5,45.5 214.5,40.8 C220.5,39 227.6,40.6 233.8,40.1 C238.7,39.7 243.8,38.6 247.5,35 C249.2,33.4 249.1,32.9 250.8,30.7 C258.8,20.5 260.8,14.2 273.9,13.4 C274.8,13.3 274.8,11.8 273.9,11.9 L273.9,11.9 Z" id="路径" fill="#FFFFFF"></path>
            <path d="M268.2,8.8 C262.1,8.1 255.5,7.3 250.5,11.6 C247.9,13.9 249.6,12.9 247,16.6 C246.8,17.8 246.7,19 246.6,20.2 C240.6,28 233.4,31.4 225.1,30.4 C211.2,31.2 198.4,32 192.5,46.5 C186.7,60.8 189.1,69.8 173.1,78.9 C165.6,83.2 157.6,86.4 151.4,92.6 C147.7,96.3 144.5,100.8 143.6,106 C142.8,110.4 145.9,114.7 145.5,118.5 C144.4,126.7 116.1,136.9 110.1,125.4 C109.7,124.6 108.4,125.3 108.8,126.1 C113,134.2 137.2,134.4 143.7,129.2 C150.2,124 145.6,120.2 145.2,113.2 C144.1,91.9 162.9,86.9 177.5,78.3 C184,74.5 187.4,69.9 189.8,62.8 C191.9,56.4 192,49.2 195.5,43.4 C202.3,32 214.1,31.8 225.2,31.8 C231.9,31.8 241.2,33.4 246,27.1 C246.8,26.1 247.1,24.5 247.8,23.6 C247.9,16.7 252.1,12 260.4,9.5 C263.1,9.5 265.7,9.7 268.4,10.1 C269.1,10.4 269.1,8.9 268.2,8.8 L268.2,8.8 Z" id="路径" fill="#FFFFFF"></path>
            <path d="M129.9,182.4 C135.6,175.5 145,171.1 154.1,173.3 C157.8,174.2 160.8,177.3 164.4,178.1 C168.2,179.1 170.9,179.4 174.6,177.9 C180.2,175.6 182.4,170.8 186.2,166.8 C205.5,146.7 209.7,159.7 224.4,168.8 C231.2,173 237.6,171.3 242.3,164.8 C245.9,159.8 246.7,153 248.1,147.1 C248.9,143.5 253.2,118.3 265,131.6 C267.5,134.4 267.2,140.6 268.9,144 C270.9,148.1 273.9,151.4 279,149.6 C282.7,148.3 284.2,144 285,140.6 C285.5,138.3 283.6,132.4 284.4,130.8 C290.9,128.7 297.5,126.6 304,124.4 C305.7,127.7 306.8,131.1 307.2,134.8 C309.5,141.3 311.7,143.6 319.2,143.1 C323.6,142.8 329.4,141.3 332.3,137.7 C336.3,132.9 334.4,126.6 339.1,121.7 C339.4,121.4 338.9,121 338.7,121.3 C333.3,127 333.4,142.7 322.4,141.9 C317.5,139.5 312.6,137.1 307.6,134.7 C307.3,132.4 306.8,130.1 306,127.8 C305,125.2 304.5,124.5 303.2,122.6 C299.9,117.7 293.9,112.2 287.8,116.1 C284.5,118.2 283.7,122.5 283.3,126 C282.3,134.9 288.4,134.4 276.2,138.2 C264.9,141.7 269.5,141.6 266.6,134.4 C264.6,129.3 260.8,124.1 254.8,127.5 C252.1,129 251,132.8 250.1,135.6 C246.7,145.5 247,159 239.5,167.2 C228.6,179 218.4,160 210.4,156.6 C206.8,155.1 202.6,154.5 198.8,155.5 C194.3,156.6 191.3,159.6 188.3,162.9 C185.4,166 183.2,171.2 179.7,173.7 C160,187.9 166.6,176.4 157.8,174.1 C146.4,171.1 137.2,172.3 129.3,182 C129.3,182.3 129.7,182.7 129.9,182.4 L129.9,182.4 Z" id="路径" fill="#FFFFFF"></path>
            <path d="M132,187.4 C138.1,185.5 144.2,183.5 150.4,181.6 C153,182.3 155.5,183 158.1,183.7 C160.3,184.2 162.5,184.8 164.8,185.2 C169.5,185.9 174.3,186 179,184.9 C182.2,184.2 185.5,183.1 188.1,181 C195.4,175.1 188.1,180.6 191.8,176.6 C192.8,175 193.6,173.4 194.3,171.7 C200,170.2 205.7,168.7 211.4,167.2 C216.1,168 220.3,173.8 225.3,175.3 C229.8,176.7 234.1,176.5 238.6,174.9 C246.5,172 247.6,166.3 252,160.4 C254.3,157.3 259.2,152.5 264.5,153.7 C262.2,153.2 268.7,157.6 268.9,157.7 C271.5,159.3 274.2,160.4 277.3,160.3 C284.8,160.1 286.8,155.2 290.5,150 C291.1,148.6 291.4,147 291.3,145.4 C295.6,144.1 299.9,142.9 304.1,141.6 C304.9,141.9 306.7,145.5 307.5,146.4 C309.6,148.8 312.1,151.1 315.2,152.2 C327.6,156.7 327.4,144.7 337.8,142.4 C338.2,142.3 338,141.8 337.6,141.8 C335.1,142.3 334,143.8 331.8,144.4 C329.5,147.4 325.7,147.9 320.5,145.9 C312.7,150.3 307.4,148.7 304.7,141.3 C304.3,140.8 303.6,139.1 303.1,138.6 C300.6,136.2 299.1,134.1 295.4,135.7 C292.3,137 292.3,140.4 291.2,142.9 C286.5,154.1 290.9,156.1 275.8,154.4 C270,155.8 265.4,154.5 262,150.6 C262,150.6 262,150.6 261.9,150.6 C257.2,150.5 256.6,149.2 253.6,153.7 C250.4,158.4 250.6,164.8 246.2,169.3 C233.7,182.1 221.6,170.4 209.6,165.8 C204.3,163.7 199.7,164 195.7,168.3 C193.9,170.2 193.8,172.9 192.2,174.7 C187.3,180.6 180.7,184.8 173,185.1 C164.2,185.5 156.5,181.7 148,180.7 C140.9,179.9 135.8,181.3 131.6,187.1 C131.3,187.4 131.8,187.7 132,187.4 L132,187.4 Z" id="路径" fill="#FFFFFF"></path>
            <path d="M175.7,11.6 C177.4,25.7 176.6,42.2 163.5,50.9 C153,57.9 138.3,61.9 126.3,57 C125.4,56.6 125.1,58.1 125.9,58.4 C138.8,63.7 155.8,59.1 166.5,50.5 C178.1,41.1 178.8,25.3 177.1,11.6 C177,10.7 175.6,10.7 175.7,11.6 L175.7,11.6 Z" id="路径" fill="#FFFFFF"></path>
            <path d="M170.1,14.2 C170.3,22 167.1,29.3 160.4,33.6 C157.3,35.6 154.2,36.1 152,39.2 C151.4,40 149.8,44.3 150,43.9 C147.8,49.2 144,51 138.4,51.7 C134,52.3 130.5,51.7 126.4,53.5 C125.5,53.9 126.3,55.1 127.1,54.8 C133,52.2 139.8,54.4 145.6,51.3 C150.7,48.6 151.8,44.6 154.8,40.1 C158,35.4 163.8,33.9 167.3,29 C170.5,24.6 171.7,19.6 171.6,14.2 C171.6,13.2 170.1,13.2 170.1,14.2 L170.1,14.2 Z" id="路径" fill="#FFFFFF"></path>
            <path d="M208.9,231.2 C213.9,222 223.2,218 232.7,215.1 C237,213.8 269.1,214 275.1,219.3 C275.8,219.9 276.8,218.9 276.1,218.3 C268.1,211.3 263.1,215.8 252.8,212.6 C246.9,210.8 245.1,207.6 238.1,209 C236.9,209.5 235.9,210.1 234.9,210.9 C231.4,213.6 227.4,215.6 222.9,216.8 C220.9,217.3 219.6,216.7 217.5,217.6 C212.8,219.7 209.9,226.5 207.7,230.5 C207.2,231.3 208.5,232.1 208.9,231.2 L208.9,231.2 Z" id="路径" fill="#FFFFFF"></path>
            <path d="M197.2,229.5 C200.3,227.4 202,225.6 204.5,222.6 C209.1,217 209.9,215 217.6,212.5 C217.9,212.4 227.5,209.2 229.3,208.8 C247.6,204.1 264.8,207.1 280.9,217.2 C281.7,217.7 282.4,216.4 281.6,215.9 C274,211.2 271.3,208.2 262.7,206.5 C253.9,204.8 248.2,199.7 239.2,202.5 C230.8,205.1 220.9,207 213.2,210.9 C205.9,214.6 203.3,223.7 196.5,228.2 C195.7,228.8 196.4,230 197.2,229.5 L197.2,229.5 Z" id="路径" fill="#FFFFFF"></path>
            <path d="M187,226.2 C193.1,221.1 197.2,215.3 202.6,209.7 C210.2,201.8 219.1,204 228.3,200.3 C235.6,197.4 234.2,196.4 243.6,196.6 C253.1,196.8 251.9,198.4 259.2,201.6 C269.1,206 277.1,203.8 285,214.5 C285.6,215.2 286.8,214.5 286.3,213.8 C281.2,206.8 275.5,203.9 267.2,201.8 C259.7,199.9 256.3,196.5 249.6,193.7 C246.2,192.3 243.7,192.1 240.1,192.9 C234.3,194.3 229.7,198.8 224,200.3 C218.5,201.8 214.2,200.7 209,203.1 C199.5,207.5 193.7,218.6 185.9,225.2 C185.3,225.8 186.3,226.8 187,226.2 L187,226.2 Z" id="路径" fill="#FFFFFF"></path>
            <path d="M308.5,37 C303.5,39.4 299.2,44.1 301.6,50 C302.5,52.2 304.4,52.8 305.6,54.5 C310,60.5 305.6,65.4 308.9,70.8 C310.2,73 311.7,73.4 313.7,74.5 C316.9,76.3 318.9,78.4 321.3,80.7 C325.4,84.6 329.7,85.9 335,83.5 C335.9,83.1 335.1,81.9 334.3,82.2 C324.9,86.5 323.7,79.2 319.4,74.4 C319,73.9 317.1,73.5 317.2,73.6 C310.9,67.8 309.8,68.3 309.5,63.3 C309.3,60.3 309.8,58.6 308.7,55.7 C308.5,55.1 308.1,54.9 307.9,54.5 C307.4,54.1 306.8,53.7 306.3,53.3 C302.7,45.2 303.6,40.3 309.2,38.4 C310.1,37.9 309.3,36.6 308.5,37 L308.5,37 Z" id="路径" fill="#FFFFFF"></path>
            <path d="M304.8,33.7 C297.5,35.9 292.1,41.7 291.4,49.6 C291,53.4 291.6,54.2 293.2,57.3 C293.6,58.1 295.4,58.5 295.9,59.3 C304.3,70.9 298.7,64.2 301.2,70.5 C305,79.9 309.9,81.8 316.9,89.4 C319.4,92.1 318.6,93.5 322.8,94.2 C327.2,94.9 332.8,92.5 336.8,91.6 C337.7,91.4 337.3,90 336.4,90.2 C327.6,92.3 326.5,93.9 317.4,85.9 C316.7,85.3 316.7,83.7 315.9,83.1 C308.9,78.1 304,77.3 302.2,67.2 C301.6,63.9 302,62.3 300.2,59.3 C300.1,59.1 299.9,59.1 299.8,59 C297.4,56.3 295,53.7 292.6,51 C293.1,43.1 297.3,37.7 305.1,35 C306.1,34.8 305.7,33.4 304.8,33.7 L304.8,33.7 Z" id="路径" fill="#FFFFFF"></path>
            <path d="M299.1,28.2 C291.3,31.4 287.2,39.9 285.8,48 C284.9,53.2 285.3,57 287.1,61.6 C287.5,62.6 289.1,62.9 289.7,63.8 C296,72.8 291.9,69.7 293.8,76.6 C294.6,79.6 293.9,82.4 296.7,84.8 C297.6,85.5 298.9,85.5 299.7,86.2 C304,89.7 301.4,86.7 310,94.5 C318,101.8 327.6,100.8 338.4,100.3 C339.3,100.3 339.3,98.8 338.4,98.8 C333,99 323.5,100.1 318.7,98.3 C314.6,96.8 311.8,94.3 310.3,90.9 C309.9,89.9 309.4,88.9 308.9,88 C304.6,85.1 302.9,85.1 299.2,80.1 C295.6,75.3 295.3,70.3 293.2,64.8 L293.1,64.7 C289.4,61.9 287.3,57.8 286.7,52.4 C286,44.3 291.8,32.9 299.3,29.7 C300.3,29.3 300,27.9 299.1,28.2 L299.1,28.2 Z" id="路径" fill="#FFFFFF"></path>
            <path d="M225.9,101.2 C227.3,101.2 227.3,99 225.9,99 C224.5,99 224.5,101.2 225.9,101.2 L225.9,101.2 Z" id="路径" fill="#FFFFFF"></path>
            <path d="M233,110.4 C234.3,110.4 234.3,108.4 233,108.4 C231.7,108.4 231.7,110.4 233,110.4 L233,110.4 Z" id="路径" fill="#FFFFFF"></path>
            <path d="M212.4,111.3 C214.2,111.3 214.2,108.5 212.4,108.5 C210.6,108.5 210.6,111.3 212.4,111.3 L212.4,111.3 Z" id="路径" fill="#FFFFFF"></path>
            <path d="M242.3,127.2 C244.1,127.2 244.1,124.4 242.3,124.4 C240.5,124.4 240.5,127.2 242.3,127.2 L242.3,127.2 Z" id="路径" fill="#FFFFFF"></path>
            <path d="M244.2,52.8 C246,52.8 246,50 244.2,50 C242.4,50.1 242.4,52.8 244.2,52.8 L244.2,52.8 Z" id="路径" fill="#FFFFFF"></path>
            <path d="M129.7,81.8 C131.5,81.8 131.5,79 129.7,79 C127.9,79.1 127.9,81.8 129.7,81.8 L129.7,81.8 Z" id="路径" fill="#FFFFFF"></path>
            <path d="M163.4,136.8 C164.7,136.8 164.7,134.8 163.4,134.8 C162.2,134.8 162.1,136.8 163.4,136.8 L163.4,136.8 Z" id="路径" fill="#FFFFFF"></path>
            <path d="M308.1,155.6 C310.7,155.6 310.7,151.6 308.1,151.6 C305.5,151.6 305.5,155.6 308.1,155.6 L308.1,155.6 Z" id="路径" fill="#FFFFFF"></path>
            <path d="M303.3,92.3 C303.9,92.3 303.9,91.3 303.3,91.3 C302.7,91.3 302.7,92.3 303.3,92.3 L303.3,92.3 Z" id="路径" fill="#FFFFFF"></path>
            <path d="M196,131.3 C196.6,131.3 196.6,130.3 196,130.3 C195.3,130.3 195.3,131.3 196,131.3 L196,131.3 Z" id="路径" fill="#FFFFFF"></path>
            <path d="M185.5,199.8 C186.1,199.8 186.1,198.8 185.5,198.8 C184.9,198.8 184.9,199.8 185.5,199.8 L185.5,199.8 Z" id="路径" fill="#FFFFFF"></path>
            <path d="M167.5,201.7 C169.3,201.7 169.3,198.9 167.5,198.9 C165.7,198.9 165.7,201.7 167.5,201.7 L167.5,201.7 Z" id="路径" fill="#FFFFFF"></path>
            <path d="M298.6,194.7 C300.4,194.7 300.4,191.9 298.6,191.9 C296.8,192 296.8,194.7 298.6,194.7 L298.6,194.7 Z" id="路径" fill="#FFFFFF"></path>
            <path d="M229.9,17.1 C231.7,17.1 231.7,14.3 229.9,14.3 C228.1,14.3 228.1,17.1 229.9,17.1 L229.9,17.1 Z" id="路径" fill="#FFFFFF"></path>
            <path d="M325.2,117.4 C327,117.4 327,114.6 325.2,114.6 C323.4,114.7 323.4,117.4 325.2,117.4 L325.2,117.4 Z" id="路径" fill="#FFFFFF"></path>
            <path d="M430.4,244.1 C428.2,284.4 339.8,298.3 216.4,253.9 C93,209.4 9.5,133.6 11.6,93.3 C12.7,72.7 36.4,59 75.8,56.5 C76.5,49.7 77.6,43 78.9,36.3 L78.9,36.3 C33.9,38.1 2.1,54 0.2,89.2 C-3.5,157.3 108.3,235 215.4,273.6 C322.5,312.1 438.3,316.4 441.9,248.2 C443.8,212.9 414.7,175.1 371.4,141.5 C372.9,149.4 374.2,157.4 375.1,165.4 C411.2,194.9 431.5,223.9 430.4,244.1 Z" id="路径" fill="url(#linearGradient-2)"></path>
            <path d="M285.9,239.1 C287.2,239.1 287.2,237.1 285.9,237.1 C284.6,237.1 284.6,239.1 285.9,239.1 L285.9,239.1 Z" id="路径" fill="#FFFFFF"></path>
            <g id="编组" transform="translate(344.000000, 57.000000)" fill="#FFFFFF">
                <g transform="translate(6.000000, 0.000000)">
                    <ellipse id="椭圆形" cx="1.5" cy="8.3" rx="1" ry="7.5"></ellipse>
                    <path d="M1.5,16.2 C0.3,16.2 0.2,10.7 0.2,8.4 C0.2,6.1 0.3,0.6 1.5,0.6 C2.7,0.6 2.8,6.1 2.8,8.4 C2.8,10.7 2.6,16.2 1.5,16.2 Z M1.5,1.4 C1.2,2.2 0.9,4.7 0.9,8.3 C0.9,11.9 1.2,14.3 1.5,15.2 C1.8,14.4 2.1,11.9 2.1,8.3 C2,4.8 1.7,2.3 1.5,1.4 Z" id="形状"></path>
                </g>
                <g transform="translate(0.000000, 7.000000)">
                    <ellipse id="椭圆形" cx="7.5" cy="1.8" rx="6.4" ry="1"></ellipse>
                    <path d="M7.5,3 C5,3 0.7,2.8 0.7,1.8 C0.7,0.8 4.9,0.6 7.5,0.6 C10.1,0.6 14.3,0.8 14.3,1.8 C14.2,2.8 10,3 7.5,3 Z M1.8,1.8 C2.6,2 4.7,2.2 7.5,2.2 C10.3,2.2 12.4,2 13.2,1.8 C12.4,1.6 10.3,1.3 7.5,1.3 C4.7,1.3 2.6,1.6 1.8,1.8 Z" id="形状"></path>
                </g>
            </g>
            <g id="编组" transform="translate(73.000000, 121.000000)" fill="#FFFFFF">
                <ellipse id="椭圆形" cx="6.6" cy="7.9" rx="1" ry="7.5"></ellipse>
                <ellipse id="椭圆形" cx="6.6" cy="8.4" rx="6.4" ry="1"></ellipse>
            </g>
            <path d="M274.8,94.8 C277.4,94.8 277.4,90.8 274.8,90.8 C272.2,90.8 272.2,94.8 274.8,94.8 L274.8,94.8 Z" id="路径" fill="#FFFFFF"></path>
        </g>
    </g>
</svg>